<svg xmlns="http://www.w3.org/2000/svg" viewBox="0 0 32 32"><title>Artboard-7</title><g id="Pot"><path d="M15.858,17.476l-.108-.164a1.757,1.757,0,0,1-.194-2.127c1.4-2.478,3.3-3.781-2.565-4.141a.5.5,0,0,0-.062,1,10.761,10.761,0,0,1,2.809.456A13.7,13.7,0,0,1,12,12.991V9.951A5.429,5.429,0,0,0,17,4.5a.5.5,0,0,0-.5-.5,5.483,5.483,0,0,0-3.134.988,5.389,5.389,0,0,0-1.514-2.913.5.5,0,0,0-.7,0A5.389,5.389,0,0,0,9.634,4.988,5.476,5.476,0,0,0,6.5,4a.5.5,0,0,0-.5.5,5.429,5.429,0,0,0,5,5.451v3.04A13.269,13.269,0,0,1,7.259,12.5a10.728,10.728,0,0,1,2.811-.455.5.5,0,0,0,.469-.529.506.506,0,0,0-.529-.469c-5.761.348-3.913,1.76-2.6,4.083.465,1.162.341,1.428-.162,2.185l-.109.166A10.511,10.511,0,0,0,5.869,20.2a10.113,10.113,0,0,0,1.539,8.639A2.555,2.555,0,0,0,9.526,30H13.47a2.51,2.51,0,0,0,2.119-1.168C18.073,25.067,18.168,21.035,15.858,17.476Zm-1.17-9.791a4.513,4.513,0,0,1-2.636,1.28,4.434,4.434,0,0,1,3.917-3.934A4.507,4.507,0,0,1,14.688,7.685ZM11.5,3.177a4.429,4.429,0,0,1,.956,2.587A5.641,5.641,0,0,0,11.5,7.2a5.584,5.584,0,0,0-.956-1.437A4.429,4.429,0,0,1,11.5,3.177ZM7.031,5.031A4.507,4.507,0,0,1,9.685,6.312a4.581,4.581,0,0,1,1.263,2.653A4.475,4.475,0,0,1,7.031,5.031Zm7.721,23.254,0,.006A1.516,1.516,0,0,1,13.47,29H9.53a1.61,1.61,0,0,1-1.282-.715,8.967,8.967,0,0,1-.269-10.258l.107-.164A2.786,2.786,0,0,0,8.315,14.7l-.577-1.026h.008a21.75,21.75,0,0,0,7.519,0l-.61,1.087a2.724,2.724,0,0,0,.262,3.11l.1.157C17.1,21.227,17.006,24.871,14.752,28.285Z"/><path d="M6.5,29h-4a.5.5,0,0,0,0,1h4a.5.5,0,0,0,0-1Z"/><path d="M29.5,29h-13a.5.5,0,0,0,0,1h13a.5.5,0,0,0,0-1Z"/></g></svg>